<svg width="1200" height="440" viewBox="0 0 1200 440" xmlns="http://www.w3.org/2000/svg" style="border-radius:18px;overflow:hidden;">
<defs>
  <linearGradient id="G0" x1="0%" y1="0%" x2="100%" y2="100%">
    <stop offset="0%"   stop-color="#0f2a7a"/>
    <stop offset="50%"  stop-color="#1e1b6e"/>
    <stop offset="100%" stop-color="#4c1d95"/>
  </linearGradient>
  <linearGradient id="G1" x1="0%" y1="0%" x2="100%" y2="100%">
    <stop offset="0%"   stop-color="#60a5fa"/>
    <stop offset="100%" stop-color="#a78bfa"/>
  </linearGradient>
  <linearGradient id="G2" x1="0%" y1="0%" x2="100%" y2="0%">
    <stop offset="0%"   stop-color="#3b82f6"/>
    <stop offset="100%" stop-color="#8b5cf6"/>
  </linearGradient>
  <linearGradient id="G3" x1="0%" y1="0%" x2="0%" y2="100%">
    <stop offset="0%"   stop-color="#ffffff" stop-opacity=".17"/>
    <stop offset="100%" stop-color="#ffffff" stop-opacity=".06"/>
  </linearGradient>
  <radialGradient id="R0" cx="50%" cy="46%" r="52%">
    <stop offset="0%"   stop-color="#6366f1" stop-opacity=".42"/>
    <stop offset="100%" stop-color="#6366f1" stop-opacity="0"/>
  </radialGradient>
  <clipPath id="BC"><rect width="1200" height="440" rx="18"/></clipPath>
  <style>
    @keyframes float-a{0%,100%{transform:translateY(0)}50%{transform:translateY(-8px)}}
    @keyframes float-b{0%,100%{transform:translateY(0)}50%{transform:translateY(8px)}}
    @keyframes float-c{0%,100%{transform:translateX(0)}50%{transform:translateX(7px)}}
    @keyframes pr1{0%{r:40;opacity:.5}100%{r:88;opacity:0}}
    @keyframes pr2{0%{r:40;opacity:.35}100%{r:112;opacity:0}}
    @keyframes bdg{0%,68%,100%{transform:scale(1)}72%{transform:scale(1.4)}78%{transform:scale(.93)}83%{transform:scale(1.1)}88%{transform:scale(1)}}
    @keyframes cbin{0%,58%,100%{opacity:0;transform:translateX(-14px) scale(.9)}63%,90%{opacity:1;transform:translateX(0) scale(1)}}
    @keyframes cbinr{0%,72%,100%{opacity:0;transform:translateX(14px) scale(.9)}77%,95%{opacity:1;transform:translateX(0) scale(1)}}
    @keyframes lnd{0%{stroke-dashoffset:220;opacity:0}18%{opacity:.65}78%{opacity:.65}100%{stroke-dashoffset:0;opacity:0}}
    @keyframes dpulse{0%,100%{opacity:.4;r:3}50%{opacity:1;r:5}}
    @keyframes spin{from{transform:rotate(0deg)}to{transform:rotate(360deg)}}
    .fa1{animation:float-a 3.6s ease-in-out infinite}
    .fa2{animation:float-b 4.2s ease-in-out infinite .7s}
    .fa3{animation:float-a 3.9s ease-in-out infinite 1.3s}
    .fa4{animation:float-c 4.6s ease-in-out infinite .4s}
    .fa5{animation:float-b 3.7s ease-in-out infinite 1.0s}
    .p1{animation:pr1 2.8s ease-out infinite}
    .p2{animation:pr2 2.8s ease-out infinite 1.2s}
    .b1{animation:bdg 3.4s ease-in-out infinite .3s}
    .b2{animation:bdg 3.4s ease-in-out infinite 1.2s}
    .b3{animation:bdg 3.4s ease-in-out infinite 2.1s}
    .ci1{animation:cbin  4.2s ease-in-out infinite .6s}
    .ci2{animation:cbin  4.2s ease-in-out infinite 2.0s}
    .cr1{animation:cbinr 4.2s ease-in-out infinite 1.2s}
    .cr2{animation:cbinr 4.2s ease-in-out infinite 2.7s}
    .l1{stroke-dasharray:220;animation:lnd 3.8s ease-in-out infinite .2s}
    .l2{stroke-dasharray:220;animation:lnd 3.8s ease-in-out infinite 1.1s}
    .l3{stroke-dasharray:220;animation:lnd 3.8s ease-in-out infinite 2.0s}
    .l4{stroke-dasharray:220;animation:lnd 3.8s ease-in-out infinite 2.8s}
    .d1{animation:dpulse 2.1s ease-in-out infinite .1s}
    .d2{animation:dpulse 2.1s ease-in-out infinite .8s}
    .d3{animation:dpulse 2.1s ease-in-out infinite 1.5s}
    .d4{animation:dpulse 2.1s ease-in-out infinite 2.2s}
    .orb{transform-origin:600px 200px;animation:spin 24s linear infinite}
  </style>
</defs>
<g clip-path="url(#BC)">
<rect width="1200" height="440" fill="url(#G0)"/>
<g stroke="white" stroke-width=".3" opacity=".042" fill="none">
  <polygon points="910,8 942,27 942,64 910,83 878,64 878,27"/>
  <polygon points="974,8 1006,27 1006,64 974,83 942,64 942,27"/>
  <polygon points="1038,8 1070,27 1070,64 1038,83 1006,64 1006,27"/>
  <polygon points="1102,8 1134,27 1134,64 1102,83 1070,64 1070,27"/>
  <polygon points="942,83 974,102 974,138 942,157 910,138 910,102"/>
  <polygon points="1006,83 1038,102 1038,138 1006,157 974,138 974,102"/>
  <polygon points="1070,83 1102,102 1102,138 1070,157 1038,138 1038,102"/>
</g>
<g stroke="white" stroke-width=".3" opacity=".048">
  <line x1="0" y1="0" x2="360" y2="440"/>
  <line x1="70" y1="0" x2="430" y2="440"/>
  <line x1="140" y1="0" x2="500" y2="440"/>
  <line x1="210" y1="0" x2="570" y2="440"/>
</g>
<ellipse cx="600" cy="200" rx="260" ry="220" fill="url(#R0)"/>
<g class="orb"><ellipse cx="600" cy="200" rx="140" ry="140" fill="none" stroke="#818cf8" stroke-width=".6" stroke-dasharray="5 9" opacity=".28"/></g>
<circle class="p1" cx="600" cy="200" r="40" fill="none" stroke="#818cf8" stroke-width="1.5"/>
<circle class="p2" cx="600" cy="200" r="40" fill="none" stroke="#c4b5fd" stroke-width="1"/>
<line class="l1" x1="572" y1="180" x2="200" y2="120" stroke="#93c5fd" stroke-width="1.2" fill="none"/>
<line class="l2" x1="568" y1="196" x2="140" y2="232" stroke="#a5b4fc" stroke-width="1.2" fill="none"/>
<line class="l3" x1="574" y1="218" x2="190" y2="322" stroke="#93c5fd" stroke-width="1.2" fill="none"/>
<line class="l4" x1="628" y1="182" x2="990" y2="118" stroke="#c4b5fd" stroke-width="1.2" fill="none"/>
<line class="l1" x1="632" y1="216" x2="1008" y2="308" stroke="#a5b4fc" stroke-width="1.2" fill="none"/>
<line class="l3" x1="618" y1="174" x2="860" y2="68"  stroke="#93c5fd" stroke-width="1"  fill="none"/>
<circle class="d1" cx="308" cy="88"  r="3" fill="#93c5fd"/>
<circle class="d2" cx="82"  cy="308" r="3" fill="#a5b4fc"/>
<circle class="d3" cx="1118" cy="188" r="3" fill="#c4b5fd"/>
<circle class="d4" cx="960"  cy="388" r="3" fill="#93c5fd"/>
<circle cx="430" cy="50"  r="2" fill="#818cf8" opacity=".5"/>
<circle cx="740" cy="420" r="2" fill="#a78bfa" opacity=".5"/>
<!-- Bell icon -->
<circle cx="600" cy="200" r="54" fill="url(#G1)" opacity=".14"/>
<circle cx="600" cy="200" r="43" fill="url(#G1)" opacity=".16"/>
<path d="M600 168 C583 168 570 181 570 198 L570 214 L562 223 L562 227 L638 227 L638 223 L630 214 L630 198 C630 181 617 168 600 168 Z" fill="white" opacity=".96"/>
<ellipse cx="600" cy="231" rx="8" ry="5" fill="white" opacity=".92"/>
<rect x="597" y="161" width="6" height="8" rx="3" fill="white" opacity=".92"/>
<circle cx="622" cy="173" r="10" fill="#f59e0b"/>
<text x="622" y="177" text-anchor="middle" font-family="system-ui,sans-serif" font-size="11" font-weight="700" fill="white">3</text>
<!-- Activity feed -->
<g class="fa1">
  <rect x="24" y="80" width="248" height="168" rx="14" fill="url(#G3)" stroke="white" stroke-width=".7" stroke-opacity=".2"/>
  <text x="46" y="104" font-family="system-ui,sans-serif" font-size="10.5" font-weight="600" fill="white" opacity=".48" letter-spacing="1.5">ACTIVITY FEED</text>
  <circle cx="48" cy="130" r="13" fill="#2563eb" opacity=".9"/>
  <text x="48" y="134" text-anchor="middle" font-family="system-ui,sans-serif" font-size="11" font-weight="700" fill="white">JR</text>
  <rect x="68" y="123" width="72" height="5" rx="2.5" fill="white" opacity=".72"/>
  <rect x="68" y="133" width="112" height="3.5" rx="1.5" fill="white" opacity=".35"/>
  <rect x="214" y="121" width="44" height="18" rx="9" fill="#f43f5e" opacity=".22"/>
  <text x="236" y="133" text-anchor="middle" font-family="system-ui,sans-serif" font-size="10" fill="#fda4af">&#x2665; 12</text>
  <circle cx="48" cy="168" r="13" fill="#7c3aed" opacity=".9"/>
  <text x="48" y="172" text-anchor="middle" font-family="system-ui,sans-serif" font-size="11" font-weight="700" fill="white">AM</text>
  <rect x="68" y="161" width="86" height="5" rx="2.5" fill="white" opacity=".72"/>
  <rect x="68" y="171" width="128" height="3.5" rx="1.5" fill="white" opacity=".35"/>
  <rect x="206" y="159" width="52" height="18" rx="9" fill="#3b82f6" opacity=".2"/>
  <text x="232" y="171" text-anchor="middle" font-family="system-ui,sans-serif" font-size="10" fill="#93c5fd">&#x1F4AC; 8</text>
  <circle cx="48" cy="206" r="13" fill="#059669" opacity=".9"/>
  <text x="48" y="210" text-anchor="middle" font-family="system-ui,sans-serif" font-size="11" font-weight="700" fill="white">SK</text>
  <rect x="68" y="199" width="96" height="5" rx="2.5" fill="white" opacity=".72"/>
  <rect x="68" y="209" width="76" height="3.5" rx="1.5" fill="white" opacity=".35"/>
  <rect x="214" y="197" width="44" height="18" rx="9" fill="#8b5cf6" opacity=".22"/>
  <text x="236" y="209" text-anchor="middle" font-family="system-ui,sans-serif" font-size="10" fill="#c4b5fd">NEW</text>
</g>
<!-- Chat bubbles left -->
<g class="ci1">
  <rect x="54" y="298" width="192" height="48" rx="14" fill="#1e3a5f" stroke="#3b82f6" stroke-width=".7"/>
  <circle cx="74" cy="322" r="11" fill="#2563eb" opacity=".9"/>
  <text x="74" y="326" text-anchor="middle" font-family="system-ui,sans-serif" font-size="10" font-weight="700" fill="white">MK</text>
  <rect x="92" y="313" width="104" height="5" rx="2" fill="white" opacity=".74"/>
  <rect x="92" y="323" width="136" height="4" rx="2" fill="white" opacity=".38"/>
  <polygon points="80,346 70,358 106,346" fill="#1e3a5f"/>
</g>
<g class="ci2">
  <rect x="34" y="364" width="174" height="44" rx="12" fill="#312e81" stroke="#6366f1" stroke-width=".7"/>
  <circle cx="54" cy="386" r="11" fill="#6366f1" opacity=".9"/>
  <text x="54" y="390" text-anchor="middle" font-family="system-ui,sans-serif" font-size="10" font-weight="700" fill="white">PL</text>
  <rect x="72" y="378" width="84" height="5" rx="2" fill="white" opacity=".7"/>
  <rect x="72" y="388" width="110" height="4" rx="2" fill="white" opacity=".36"/>
</g>
<!-- Left avatars -->
<g class="fa2">
  <circle cx="178" cy="124" r="22" fill="#1d4ed8" stroke="white" stroke-width="2" stroke-opacity=".55"/>
  <text x="178" y="129" text-anchor="middle" font-family="system-ui,sans-serif" font-size="13" font-weight="700" fill="white">TN</text>
  <g class="b1"><circle cx="194" cy="108" r="10" fill="#ef4444"/><text x="194" y="112" text-anchor="middle" font-family="system-ui,sans-serif" font-size="10" font-weight="700" fill="white">5</text></g>
</g>
<g class="fa3">
  <circle cx="140" cy="258" r="18" fill="#7c3aed" stroke="white" stroke-width="1.5" stroke-opacity=".5"/>
  <text x="140" y="262" text-anchor="middle" font-family="system-ui,sans-serif" font-size="11" font-weight="700" fill="white">RA</text>
  <g class="b2"><circle cx="153" cy="245" r="8" fill="#f59e0b"/><text x="153" y="249" text-anchor="middle" font-family="system-ui,sans-serif" font-size="9" font-weight="700" fill="white">2</text></g>
</g>
<!-- Right notification cards -->
<g class="cr1">
  <rect x="890" y="90" width="276" height="66" rx="14" fill="url(#G3)" stroke="#60a5fa" stroke-width=".75" stroke-opacity=".5"/>
  <circle cx="916" cy="123" r="14" fill="#2563eb" opacity=".9"/>
  <text x="916" y="127" text-anchor="middle" font-family="system-ui,sans-serif" font-size="11" font-weight="700" fill="white">DK</text>
  <rect x="938" y="107" width="92" height="5" rx="2.5" fill="white" opacity=".8"/>
  <rect x="938" y="117" width="170" height="4" rx="2" fill="white" opacity=".44"/>
  <rect x="938" y="127" width="130" height="4" rx="2" fill="white" opacity=".28"/>
  <rect x="1112" y="95" width="44" height="18" rx="9" fill="#3b82f6" opacity=".28"/>
  <text x="1134" y="107" text-anchor="middle" font-family="system-ui,sans-serif" font-size="9" font-weight="600" fill="#93c5fd">POST</text>
  <circle cx="1152" cy="123" r="5" fill="#34d399"/>
</g>
<g class="cr2">
  <rect x="890" y="178" width="276" height="66" rx="14" fill="url(#G3)" stroke="#a78bfa" stroke-width=".75" stroke-opacity=".5"/>
  <circle cx="916" cy="211" r="14" fill="#7c3aed" opacity=".9"/>
  <text x="916" y="215" text-anchor="middle" font-family="system-ui,sans-serif" font-size="11" font-weight="700" fill="white">SF</text>
  <rect x="938" y="195" width="80" height="5" rx="2.5" fill="white" opacity=".8"/>
  <rect x="938" y="205" width="162" height="4" rx="2" fill="white" opacity=".44"/>
  <rect x="938" y="215" width="118" height="4" rx="2" fill="white" opacity=".28"/>
  <rect x="1104" y="183" width="56" height="18" rx="9" fill="#7c3aed" opacity=".28"/>
  <text x="1132" y="195" text-anchor="middle" font-family="system-ui,sans-serif" font-size="9" font-weight="600" fill="#c4b5fd">REPLY</text>
  <circle cx="1152" cy="211" r="5" fill="#f59e0b"/>
</g>
<g class="cr1">
  <rect x="890" y="266" width="276" height="66" rx="14" fill="url(#G3)" stroke="#6ee7b7" stroke-width=".75" stroke-opacity=".4"/>
  <circle cx="916" cy="299" r="14" fill="#059669" opacity=".9"/>
  <text x="916" y="303" text-anchor="middle" font-family="system-ui,sans-serif" font-size="11" font-weight="700" fill="white">WB</text>
  <rect x="938" y="283" width="108" height="5" rx="2.5" fill="white" opacity=".8"/>
  <rect x="938" y="293" width="154" height="4" rx="2" fill="white" opacity=".44"/>
  <rect x="938" y="303" width="112" height="4" rx="2" fill="white" opacity=".28"/>
  <rect x="1112" y="271" width="44" height="18" rx="9" fill="#059669" opacity=".28"/>
  <text x="1134" y="283" text-anchor="middle" font-family="system-ui,sans-serif" font-size="9" font-weight="600" fill="#6ee7b7">LIKE</text>
  <circle cx="1152" cy="299" r="5" fill="#34d399"/>
</g>
<g class="cr2">
  <rect x="910" y="352" width="250" height="52" rx="14" fill="#1a2744" stroke="#93c5fd" stroke-width=".7" stroke-opacity=".4"/>
  <circle cx="932" cy="378" r="12" fill="#0369a1" opacity=".9"/>
  <text x="932" y="382" text-anchor="middle" font-family="system-ui,sans-serif" font-size="10" font-weight="700" fill="white">CR</text>
  <rect x="950" y="369" width="88" height="5" rx="2" fill="white" opacity=".72"/>
  <rect x="950" y="379" width="142" height="4" rx="2" fill="white" opacity=".36"/>
  <polygon points="1140,404 1152,416 1124,404" fill="#1a2744"/>
</g>
<!-- Right avatars -->
<g class="fa4">
  <circle cx="982" cy="68" r="22" fill="#1e40af" stroke="white" stroke-width="2" stroke-opacity=".5"/>
  <text x="982" y="73" text-anchor="middle" font-family="system-ui,sans-serif" font-size="13" font-weight="700" fill="white">LM</text>
  <g class="b3"><circle cx="998" cy="52" r="10" fill="#f43f5e"/><text x="998" y="56" text-anchor="middle" font-family="system-ui,sans-serif" font-size="10" font-weight="700" fill="white">7</text></g>
</g>
<g class="fa5">
  <circle cx="1058" cy="362" r="18" fill="#0f766e" stroke="white" stroke-width="1.5" stroke-opacity=".5"/>
  <text x="1058" y="366" text-anchor="middle" font-family="system-ui,sans-serif" font-size="11" font-weight="700" fill="white">YP</text>
</g>
<!-- Corners -->
<g opacity=".07">
  <circle cx="0" cy="440" r="130" fill="none" stroke="white" stroke-width="1"/>
  <circle cx="0" cy="440" r="80" fill="none" stroke="white" stroke-width=".5"/>
  <circle cx="1200" cy="0" r="150" fill="none" stroke="#a78bfa" stroke-width="1"/>
  <circle cx="1200" cy="0" r="90" fill="none" stroke="#a78bfa" stroke-width=".5"/>
</g>
<!-- Typography -->
<rect x="452" y="280" width="296" height="26" rx="13" fill="white" fill-opacity=".1" stroke="white" stroke-width=".7" stroke-opacity=".25"/>
<circle cx="470" cy="293" r="5" fill="#34d399"/>
<text x="483" y="297.5" font-family="system-ui,sans-serif" font-size="11.5" font-weight="500" fill="white" opacity=".88">BuddyPress Integration &#xB7; Real-Time</text>
<text x="600" y="324" text-anchor="middle" font-family="system-ui,sans-serif" font-size="11" font-weight="600" fill="#93c5fd" letter-spacing="3" opacity=".8">PNFPB  &#xB7;  PUSH NOTIFICATIONS</text>
<text x="600" y="362" text-anchor="middle" font-family="system-ui,sans-serif" font-size="32" font-weight="700" fill="white" letter-spacing="-.3">BuddyPress Activity Notifications</text>
<text x="600" y="398" text-anchor="middle" font-family="system-ui,sans-serif" font-size="32" font-weight="700" fill="white" letter-spacing="-.3">in Real Time</text>
<rect x="560" y="408" width="80" height="2.5" rx="2" fill="url(#G2)"/>
<text x="600" y="428" text-anchor="middle" font-family="system-ui,sans-serif" font-size="13.5" fill="white" opacity=".66">Keep your community engaged with instant alerts for posts, comments, likes, and updates</text>
</g>
</svg>
